<svg id="Layer_1" data-name="Layer 1" xmlns="http://www.w3.org/2000/svg" viewBox="0 0 530.73 574.95"><defs><style>.cls-1{fill:#d9dff1;}.cls-2{font-size:30.72px;}.cls-11,.cls-16,.cls-17,.cls-18,.cls-2,.cls-20,.cls-22,.cls-7,.cls-9{fill:#231f20;font-family:RobotoCondensed-Regular, Roboto Condensed;}.cls-3{letter-spacing:-0.01em;}.cls-4{fill:#3f53a0;}.cls-5{fill:#293c90;}.cls-6{fill:#cbd4ea;}.cls-7{font-size:18px;}.cls-8{fill:#2a3b90;}.cls-9{font-size:33.98px;}.cls-10{fill:#e57b81;}.cls-11{font-size:17.8px;}.cls-12{letter-spacing:-0.02em;}.cls-13{fill:#1cb35a;}.cls-14{fill:#b7debe;}.cls-15{fill:#00a64f;}.cls-16{font-size:28.66px;}.cls-17{font-size:34.46px;}.cls-18{font-size:18.04px;}.cls-19{letter-spacing:-0.02em;}.cls-20{font-size:31.38px;}.cls-21{letter-spacing:-0.01em;}.cls-22{font-size:16.12px;}.cls-23{letter-spacing:-0.01em;}.cls-24{fill:#cddaf0;}.cls-25{fill:#5c71b6;}</style></defs><title>platform</title><polygon class="cls-1" points="306.87 170.3 238.42 130.78 238.42 39.52 306.87 79.04 306.87 170.3"/><text class="cls-2" transform="matrix(0.75, 0.43, 0, 1, 244.3, 88.52)"><tspan class="cls-3">P</tspan><tspan x="16.83" y="0">ollen</tspan></text><polygon class="cls-4" points="375.31 130.78 306.87 170.3 306.87 79.04 375.31 39.52 375.31 130.78"/><polygon class="cls-5" points="306.87 79.04 238.42 39.52 306.87 0 375.31 39.52 306.87 79.04"/><polygon class="cls-6" points="299.15 146.65 244.29 114.98 244.29 91.45 299.15 123.12 299.15 146.65"/><text class="cls-7" transform="matrix(0.75, 0.43, 0, 1, 247.24, 111.03)">database</text><polygon class="cls-8" points="267.4 178.48 270.53 153.34 226.99 155.15 239.29 162.25 141.31 218.82 129.01 211.72 125.89 236.85 169.42 235.05 157.12 227.95 255.1 171.38 267.4 178.48"/><polygon class="cls-8" points="267.4 178.2 270.53 153.06 226.99 154.87 239.29 161.97 141.31 218.54 129.01 211.44 125.89 236.57 169.42 234.76 157.12 227.66 255.1 171.1 267.4 178.2"/><polygon class="cls-8" points="267.4 177.91 270.53 152.78 226.99 154.58 239.29 161.68 141.31 218.25 129.01 211.15 125.89 236.29 169.42 234.48 157.12 227.38 255.1 170.81 267.4 177.91"/><polygon class="cls-8" points="267.4 177.63 270.53 152.5 226.99 154.3 239.29 161.4 141.31 217.97 129.01 210.87 125.89 236 169.42 234.2 157.12 227.1 255.1 170.53 267.4 177.63"/><polygon class="cls-8" points="267.4 177.35 270.53 152.21 226.99 154.02 239.29 161.12 141.31 217.69 129.01 210.59 125.89 235.72 169.42 233.91 157.12 226.81 255.1 170.25 267.4 177.35"/><polygon class="cls-8" points="267.4 177.06 270.53 151.93 226.99 153.73 239.29 160.83 141.31 217.4 129.01 210.3 125.89 235.44 169.42 233.63 157.12 226.53 255.1 169.96 267.4 177.06"/><polygon class="cls-8" points="267.4 176.78 270.53 151.64 226.99 153.45 239.29 160.55 141.31 217.12 129.01 210.02 125.89 235.15 169.42 233.35 157.12 226.25 255.1 169.68 267.4 176.78"/><polygon class="cls-8" points="267.4 176.5 270.53 151.36 226.99 153.17 239.29 160.27 141.31 216.84 129.01 209.73 125.89 234.87 169.42 233.06 157.12 225.96 255.1 169.4 267.4 176.5"/><polygon class="cls-8" points="267.4 176.21 270.53 151.08 226.99 152.88 239.29 159.98 141.31 216.55 129.01 209.45 125.89 234.59 169.42 232.78 157.12 225.68 255.1 169.11 267.4 176.21"/><polygon class="cls-8" points="267.4 175.93 270.53 150.79 226.99 152.6 239.29 159.7 141.31 216.27 129.01 209.17 125.89 234.3 169.42 232.5 157.12 225.4 255.1 168.83 267.4 175.93"/><polygon class="cls-8" points="267.4 175.65 270.53 150.51 226.99 152.31 239.29 159.42 141.31 215.99 129.01 208.88 125.89 234.02 169.42 232.21 157.12 225.11 255.1 168.54 267.4 175.65"/><polygon class="cls-8" points="267.4 175.36 270.53 150.23 226.99 152.03 239.29 159.13 141.31 215.7 129.01 208.6 125.89 233.74 169.42 231.93 157.12 224.83 255.1 168.26 267.4 175.36"/><polygon class="cls-8" points="267.4 175.08 270.53 149.94 226.99 151.75 239.29 158.85 141.31 215.42 129.01 208.32 125.89 233.45 169.42 231.65 157.12 224.55 255.1 167.98 267.4 175.08"/><polygon class="cls-8" points="267.4 174.79 270.53 149.66 226.99 151.47 239.29 158.57 141.31 215.13 129.01 208.03 125.89 233.17 169.42 231.36 157.12 224.26 255.1 167.69 267.4 174.79"/><polygon class="cls-8" points="267.4 174.51 270.53 149.38 226.99 151.18 239.29 158.28 141.31 214.85 129.01 207.75 125.89 232.88 169.42 231.08 157.12 223.98 255.1 167.41 267.4 174.51"/><polygon class="cls-8" points="267.4 174.23 270.53 149.09 226.99 150.9 239.29 158 141.31 214.57 129.01 207.47 125.89 232.6 169.42 230.8 157.12 223.7 255.1 167.13 267.4 174.23"/><polygon class="cls-8" points="267.4 173.94 270.53 148.81 226.99 150.61 239.29 157.72 141.31 214.28 129.01 207.18 125.89 232.32 169.42 230.51 157.12 223.41 255.1 166.84 267.4 173.94"/><polygon class="cls-8" points="267.4 173.66 270.53 148.53 226.99 150.33 239.29 157.43 141.31 214 129.01 206.9 125.89 232.03 169.42 230.23 157.12 223.13 255.1 166.56 267.4 173.66"/><polygon class="cls-8" points="267.4 173.38 270.53 148.24 226.99 150.05 239.29 157.15 141.31 213.72 129.01 206.62 125.89 231.75 169.42 229.95 157.12 222.84 255.1 166.28 267.4 173.38"/><polygon class="cls-8" points="267.4 173.09 270.53 147.96 226.99 149.76 239.29 156.87 141.31 213.43 129.01 206.33 125.89 231.47 169.42 229.66 157.12 222.56 255.1 165.99 267.4 173.09"/><polygon class="cls-8" points="267.4 172.81 270.53 147.68 226.99 149.48 239.29 156.58 141.31 213.15 129.01 206.05 125.89 231.18 169.42 229.38 157.12 222.28 255.1 165.71 267.4 172.81"/><polygon class="cls-8" points="267.4 172.53 270.53 147.39 226.99 149.2 239.29 156.3 141.31 212.87 129.01 205.77 125.89 230.9 169.42 229.1 157.12 222 255.1 165.43 267.4 172.53"/><polygon class="cls-8" points="267.4 172.24 270.53 147.11 226.99 148.91 239.29 156.01 141.31 212.58 129.01 205.48 125.89 230.62 169.42 228.81 157.12 221.71 255.1 165.14 267.4 172.24"/><polygon class="cls-8" points="267.4 171.96 270.53 146.82 226.99 148.63 239.29 155.73 141.31 212.3 129.01 205.2 125.89 230.33 169.42 228.53 157.12 221.43 255.1 164.86 267.4 171.96"/><polygon class="cls-8" points="267.4 171.68 270.53 146.54 226.99 148.35 239.29 155.45 141.31 212.02 129.01 204.91 125.89 230.05 169.42 228.25 157.12 221.15 255.1 164.58 267.4 171.68"/><polygon class="cls-8" points="267.4 171.39 270.53 146.26 226.99 148.06 239.29 155.16 141.31 211.73 129.01 204.63 125.89 229.77 169.42 227.96 157.12 220.86 255.1 164.29 267.4 171.39"/><polygon class="cls-8" points="267.4 171.11 270.53 145.97 226.99 147.78 239.29 154.88 141.31 211.45 129.01 204.35 125.89 229.48 169.42 227.68 157.12 220.58 255.1 164.01 267.4 171.11"/><polygon class="cls-8" points="267.4 170.83 270.53 145.69 226.99 147.5 239.29 154.6 141.31 211.17 129.01 204.06 125.89 229.2 169.42 227.4 157.12 220.29 255.1 163.72 267.4 170.83"/><polygon class="cls-8" points="267.4 170.54 270.53 145.41 226.99 147.21 239.29 154.31 141.31 210.88 129.01 203.78 125.89 228.92 169.42 227.11 157.12 220.01 255.1 163.44 267.4 170.54"/><polygon class="cls-8" points="267.4 170.26 270.53 145.13 226.99 146.93 239.29 154.03 141.31 210.6 129.01 203.5 125.89 228.63 169.42 226.83 157.12 219.73 255.1 163.16 267.4 170.26"/><polygon class="cls-8" points="267.4 169.98 270.53 144.84 226.99 146.65 239.29 153.75 141.31 210.31 129.01 203.21 125.89 228.35 169.42 226.54 157.12 219.44 255.1 162.88 267.4 169.98"/><polygon class="cls-8" points="267.4 169.69 270.53 144.56 226.99 146.36 239.29 153.46 141.31 210.03 129.01 202.93 125.89 228.07 169.42 226.26 157.12 219.16 255.1 162.59 267.4 169.69"/><polygon class="cls-8" points="267.4 169.41 270.53 144.27 226.99 146.08 239.29 153.18 141.31 209.75 129.01 202.65 125.89 227.78 169.42 225.98 157.12 218.88 255.1 162.31 267.4 169.41"/><polygon class="cls-8" points="267.4 169.13 270.53 143.99 226.99 145.79 239.29 152.9 141.31 209.47 129.01 202.36 125.89 227.5 169.42 225.69 157.12 218.59 255.1 162.03 267.4 169.13"/><polygon class="cls-8" points="267.4 168.84 270.53 143.71 226.99 145.51 239.29 152.61 141.31 209.18 129.01 202.08 125.89 227.22 169.42 225.41 157.12 218.31 255.1 161.74 267.4 168.84"/><polygon class="cls-8" points="267.4 168.56 270.53 143.42 226.99 145.23 239.29 152.33 141.31 208.9 129.01 201.8 125.89 226.93 169.42 225.13 157.12 218.03 255.1 161.46 267.4 168.56"/><polygon class="cls-8" points="267.4 168.28 270.53 143.14 226.99 144.94 239.29 152.05 141.31 208.62 129.01 201.51 125.89 226.65 169.42 224.84 157.12 217.74 255.1 161.17 267.4 168.28"/><polygon class="cls-8" points="267.4 167.99 270.53 142.86 226.99 144.66 239.29 151.76 141.31 208.33 129.01 201.23 125.89 226.37 169.42 224.56 157.12 217.46 255.1 160.89 267.4 167.99"/><polygon class="cls-8" points="267.4 167.71 270.53 142.57 226.99 144.38 239.29 151.48 141.31 208.05 129.01 200.95 125.89 226.08 169.42 224.28 157.12 217.18 255.1 160.61 267.4 167.71"/><polygon class="cls-8" points="267.4 167.43 270.53 142.29 226.99 144.09 239.29 151.2 141.31 207.76 129.01 200.66 125.89 225.8 169.42 223.99 157.12 216.89 255.1 160.32 267.4 167.43"/><polygon class="cls-8" points="267.4 167.14 270.53 142.01 226.99 143.81 239.29 150.91 141.31 207.48 129.01 200.38 125.89 225.51 169.42 223.71 157.12 216.61 255.1 160.04 267.4 167.14"/><polygon class="cls-8" points="267.4 166.86 270.53 141.72 226.99 143.53 239.29 150.63 141.31 207.2 129.01 200.1 125.89 225.23 169.42 223.43 157.12 216.33 255.1 159.76 267.4 166.86"/><polygon class="cls-8" points="267.4 166.57 270.53 141.44 226.99 143.24 239.29 150.34 141.31 206.91 129.01 199.81 125.89 224.95 169.42 223.14 157.12 216.04 255.1 159.47 267.4 166.57"/><polygon class="cls-8" points="267.4 166.29 270.53 141.16 226.99 142.96 239.29 150.06 141.31 206.63 129.01 199.53 125.89 224.66 169.42 222.86 157.12 215.76 255.1 159.19 267.4 166.29"/><polygon class="cls-8" points="267.4 166.01 270.53 140.87 226.99 142.68 239.29 149.78 141.31 206.35 129.01 199.25 125.89 224.38 169.42 222.58 157.12 215.47 255.1 158.91 267.4 166.01"/><polygon class="cls-8" points="267.4 165.72 270.53 140.59 226.99 142.39 239.29 149.5 141.31 206.06 129.01 198.96 125.89 224.1 169.42 222.29 157.12 215.19 255.1 158.62 267.4 165.72"/><polygon class="cls-8" points="267.4 165.44 270.53 140.31 226.99 142.11 239.29 149.21 141.31 205.78 129.01 198.68 125.89 223.81 169.42 222.01 157.12 214.91 255.1 158.34 267.4 165.44"/><polygon class="cls-8" points="267.4 165.16 270.53 140.02 226.99 141.83 239.29 148.93 141.31 205.5 129.01 198.4 125.89 223.53 169.42 221.73 157.12 214.63 255.1 158.06 267.4 165.16"/><polygon class="cls-8" points="267.4 164.87 270.53 139.74 226.99 141.54 239.29 148.64 141.31 205.21 129.01 198.11 125.89 223.25 169.42 221.44 157.12 214.34 255.1 157.77 267.4 164.87"/><polygon class="cls-8" points="267.4 164.59 270.53 139.46 226.99 141.26 239.29 148.36 141.31 204.93 129.01 197.83 125.89 222.96 169.42 221.16 157.12 214.06 255.1 157.49 267.4 164.59"/><polygon class="cls-8" points="267.4 164.31 270.53 139.17 226.99 140.98 239.29 148.08 141.31 204.65 129.01 197.54 125.89 222.68 169.42 220.88 157.12 213.77 255.1 157.21 267.4 164.31"/><polygon class="cls-1" points="267.4 164.31 270.53 139.17 226.99 140.98 239.29 148.08 141.31 204.65 129.01 197.54 125.89 222.68 169.42 220.88 157.12 213.77 255.1 157.21 267.4 164.31"/><polygon class="cls-1" points="68.41 309.9 0 270.41 0 179.2 68.41 218.69 68.41 309.9"/><text class="cls-9" transform="matrix(0.75, 0.43, 0, 1, 8.12, 231.86)">Stalk</text><polygon class="cls-4" points="136.82 270.41 68.41 309.9 68.41 218.69 136.82 179.2 136.82 270.41"/><polygon class="cls-5" points="68.41 218.69 0 179.2 68.41 139.7 136.82 179.2 68.41 218.69"/><polygon class="cls-10" points="68.41 309.9 28.92 287.11 28.92 263.59 68.41 286.39 68.41 309.9"/><text class="cls-11" transform="matrix(0.75, 0.43, 0, 1, 34.96, 285.19)">RES<tspan class="cls-12" x="27.5" y="0">T</tspan></text><polygon class="cls-8" points="146.31 365.1 182.83 363.59 185.45 342.51 173.54 349.38 102.36 308.29 114.28 301.42 77.76 302.93 75.14 324.01 87.05 317.13 158.22 358.23 146.31 365.1"/><polygon class="cls-8" points="146.31 364.82 182.83 363.31 185.45 342.22 173.54 349.1 102.36 308.01 114.28 301.13 77.76 302.65 75.14 323.73 87.05 316.85 158.22 357.94 146.31 364.82"/><polygon class="cls-8" points="146.31 364.54 182.83 363.02 185.45 341.94 173.54 348.82 102.36 307.73 114.28 300.85 77.76 302.36 75.14 323.44 87.05 316.57 158.22 357.66 146.31 364.54"/><polygon class="cls-8" points="146.31 364.25 182.83 362.74 185.45 341.66 173.54 348.53 102.36 307.44 114.28 300.56 77.76 302.08 75.14 323.16 87.05 316.28 158.22 357.37 146.31 364.25"/><polygon class="cls-8" points="146.31 363.97 182.83 362.45 185.45 341.37 173.54 348.25 102.36 307.16 114.28 300.28 77.76 301.8 75.14 322.88 87.05 316 158.22 357.09 146.31 363.97"/><polygon class="cls-8" points="146.31 363.69 182.83 362.17 185.45 341.09 173.54 347.97 102.36 306.88 114.28 300 77.76 301.51 75.14 322.59 87.05 315.72 158.22 356.81 146.31 363.69"/><polygon class="cls-8" points="146.31 363.4 182.83 361.89 185.45 340.81 173.54 347.68 102.36 306.59 114.28 299.71 77.76 301.23 75.14 322.31 87.05 315.43 158.22 356.52 146.31 363.4"/><polygon class="cls-8" points="146.31 363.12 182.83 361.6 185.45 340.52 173.54 347.4 102.36 306.31 114.28 299.43 77.76 300.94 75.14 322.03 87.05 315.15 158.22 356.24 146.31 363.12"/><polygon class="cls-8" points="146.31 362.83 182.83 361.32 185.45 340.24 173.54 347.12 102.36 306.02 114.28 299.15 77.76 300.66 75.14 321.74 87.05 314.87 158.22 355.96 146.31 362.83"/><polygon class="cls-8" points="146.31 362.55 182.83 361.04 185.45 339.95 173.54 346.83 102.36 305.74 114.28 298.86 77.76 300.38 75.14 321.46 87.05 314.58 158.22 355.67 146.31 362.55"/><polygon class="cls-8" points="146.31 362.27 182.83 360.75 185.45 339.67 173.54 346.55 102.36 305.46 114.28 298.58 77.76 300.1 75.14 321.18 87.05 314.3 158.22 355.39 146.31 362.27"/><polygon class="cls-8" points="146.31 361.98 182.83 360.47 185.45 339.39 173.54 346.27 102.36 305.18 114.28 298.3 77.76 299.81 75.14 320.89 87.05 314.02 158.22 355.11 146.31 361.98"/><polygon class="cls-8" points="146.31 361.7 182.83 360.19 185.45 339.11 173.54 345.98 102.36 304.89 114.28 298.01 77.76 299.53 75.14 320.61 87.05 313.73 158.22 354.82 146.31 361.7"/><polygon class="cls-8" points="146.31 361.42 182.83 359.9 185.45 338.82 173.54 345.7 102.36 304.61 114.28 297.73 77.76 299.24 75.14 320.33 87.05 313.45 158.22 354.54 146.31 361.42"/><polygon class="cls-8" points="146.31 361.13 182.83 359.62 185.45 338.54 173.54 345.42 102.36 304.32 114.28 297.45 77.76 298.96 75.14 320.04 87.05 313.17 158.22 354.26 146.31 361.13"/><polygon class="cls-8" points="146.31 360.85 182.83 359.34 185.45 338.25 173.54 345.13 102.36 304.04 114.28 297.16 77.76 298.68 75.14 319.76 87.05 312.88 158.22 353.97 146.31 360.85"/><polygon class="cls-8" points="146.31 360.57 182.83 359.05 185.45 337.97 173.54 344.85 102.36 303.76 114.28 296.88 77.76 298.39 75.14 319.48 87.05 312.6 158.22 353.69 146.31 360.57"/><polygon class="cls-8" points="146.31 360.28 182.83 358.77 185.45 337.69 173.54 344.56 102.36 303.47 114.28 296.6 77.76 298.11 75.14 319.19 87.05 312.31 158.22 353.41 146.31 360.28"/><polygon class="cls-8" points="146.31 360 182.83 358.49 185.45 337.4 173.54 344.28 102.36 303.19 114.28 296.31 77.76 297.83 75.14 318.91 87.05 312.03 158.22 353.12 146.31 360"/><polygon class="cls-8" points="146.31 359.72 182.83 358.2 185.45 337.12 173.54 344 102.36 302.91 114.28 296.03 77.76 297.54 75.14 318.63 87.05 311.75 158.22 352.84 146.31 359.72"/><polygon class="cls-8" points="146.31 359.43 182.83 357.92 185.45 336.84 173.54 343.71 102.36 302.62 114.28 295.75 77.76 297.26 75.14 318.34 87.05 311.46 158.22 352.56 146.31 359.43"/><polygon class="cls-8" points="146.31 359.15 182.83 357.64 185.45 336.55 173.54 343.43 102.36 302.34 114.28 295.46 77.76 296.98 75.14 318.06 87.05 311.18 158.22 352.27 146.31 359.15"/><polygon class="cls-8" points="146.31 358.87 182.83 357.35 185.45 336.27 173.54 343.15 102.36 302.06 114.28 295.18 77.76 296.69 75.14 317.77 87.05 310.9 158.22 351.99 146.31 358.87"/><polygon class="cls-8" points="146.31 358.58 182.83 357.07 185.45 335.99 173.54 342.86 102.36 301.77 114.28 294.9 77.76 296.41 75.14 317.49 87.05 310.61 158.22 351.7 146.31 358.58"/><polygon class="cls-8" points="146.31 358.3 182.83 356.79 185.45 335.7 173.54 342.58 102.36 301.49 114.28 294.61 77.76 296.13 75.14 317.21 87.05 310.33 158.22 351.42 146.31 358.3"/><polygon class="cls-8" points="146.31 358.02 182.83 356.5 185.45 335.42 173.54 342.3 102.36 301.21 114.28 294.33 77.76 295.84 75.14 316.93 87.05 310.05 158.22 351.14 146.31 358.02"/><polygon class="cls-8" points="146.31 357.73 182.83 356.22 185.45 335.14 173.54 342.01 102.36 300.92 114.28 294.05 77.76 295.56 75.14 316.64 87.05 309.76 158.22 350.86 146.31 357.73"/><polygon class="cls-8" points="146.31 357.45 182.83 355.94 185.45 334.85 173.54 341.73 102.36 300.64 114.28 293.76 77.76 295.28 75.14 316.36 87.05 309.48 158.22 350.57 146.31 357.45"/><polygon class="cls-8" points="146.31 357.17 182.83 355.65 185.45 334.57 173.54 341.45 102.36 300.36 114.28 293.48 77.76 294.99 75.14 316.07 87.05 309.2 158.22 350.29 146.31 357.17"/><polygon class="cls-8" points="146.31 356.88 182.83 355.37 185.45 334.29 173.54 341.16 102.36 300.07 114.28 293.19 77.76 294.71 75.14 315.79 87.05 308.91 158.22 350 146.31 356.88"/><polygon class="cls-8" points="146.31 356.6 182.83 355.08 185.45 334 173.54 340.88 102.36 299.79 114.28 292.91 77.76 294.43 75.14 315.51 87.05 308.63 158.22 349.72 146.31 356.6"/><polygon class="cls-8" points="146.31 356.31 182.83 354.8 185.45 333.72 173.54 340.6 102.36 299.51 114.28 292.63 77.76 294.14 75.14 315.22 87.05 308.35 158.22 349.44 146.31 356.31"/><polygon class="cls-8" points="146.31 356.03 182.83 354.52 185.45 333.44 173.54 340.31 102.36 299.22 114.28 292.35 77.76 293.86 75.14 314.94 87.05 308.06 158.22 349.15 146.31 356.03"/><polygon class="cls-8" points="146.31 355.75 182.83 354.23 185.45 333.15 173.54 340.03 102.36 298.94 114.28 292.06 77.76 293.57 75.14 314.66 87.05 307.78 158.22 348.87 146.31 355.75"/><polygon class="cls-8" points="146.31 355.46 182.83 353.95 185.45 332.87 173.54 339.75 102.36 298.65 114.28 291.78 77.76 293.29 75.14 314.37 87.05 307.5 158.22 348.59 146.31 355.46"/><polygon class="cls-8" points="146.31 355.18 182.83 353.67 185.45 332.58 173.54 339.46 102.36 298.37 114.28 291.49 77.76 293.01 75.14 314.09 87.05 307.21 158.22 348.3 146.31 355.18"/><polygon class="cls-8" points="146.31 354.9 182.83 353.38 185.45 332.3 173.54 339.18 102.36 298.09 114.28 291.21 77.76 292.73 75.14 313.81 87.05 306.93 158.22 348.02 146.31 354.9"/><polygon class="cls-8" points="146.31 354.61 182.83 353.1 185.45 332.02 173.54 338.9 102.36 297.81 114.28 290.93 77.76 292.44 75.14 313.52 87.05 306.65 158.22 347.74 146.31 354.61"/><polygon class="cls-8" points="146.31 354.33 182.83 352.82 185.45 331.74 173.54 338.61 102.36 297.52 114.28 290.64 77.76 292.16 75.14 313.24 87.05 306.36 158.22 347.45 146.31 354.33"/><polygon class="cls-8" points="146.31 354.05 182.83 352.53 185.45 331.45 173.54 338.33 102.36 297.24 114.28 290.36 77.76 291.87 75.14 312.96 87.05 306.08 158.22 347.17 146.31 354.05"/><polygon class="cls-8" points="146.31 353.76 182.83 352.25 185.45 331.17 173.54 338.05 102.36 296.95 114.28 290.08 77.76 291.59 75.14 312.67 87.05 305.8 158.22 346.89 146.31 353.76"/><polygon class="cls-8" points="146.31 353.48 182.83 351.97 185.45 330.88 173.54 337.76 102.36 296.67 114.28 289.79 77.76 291.31 75.14 312.39 87.05 305.51 158.22 346.6 146.31 353.48"/><polygon class="cls-8" points="146.31 353.2 182.83 351.68 185.45 330.6 173.54 337.48 102.36 296.39 114.28 289.51 77.76 291.02 75.14 312.11 87.05 305.23 158.22 346.32 146.31 353.2"/><polygon class="cls-8" points="146.31 352.91 182.83 351.4 185.45 330.32 173.54 337.19 102.36 296.1 114.28 289.23 77.76 290.74 75.14 311.82 87.05 304.94 158.22 346.04 146.31 352.91"/><polygon class="cls-8" points="146.31 352.63 182.83 351.12 185.45 330.03 173.54 336.91 102.36 295.82 114.28 288.94 77.76 290.46 75.14 311.54 87.05 304.66 158.22 345.75 146.31 352.63"/><polygon class="cls-8" points="146.31 352.35 182.83 350.83 185.45 329.75 173.54 336.63 102.36 295.54 114.28 288.66 77.76 290.17 75.14 311.25 87.05 304.38 158.22 345.47 146.31 352.35"/><polygon class="cls-8" points="146.31 352.06 182.83 350.55 185.45 329.47 173.54 336.35 102.36 295.25 114.28 288.38 77.76 289.89 75.14 310.97 87.05 304.1 158.22 345.19 146.31 352.06"/><polygon class="cls-8" points="146.31 351.78 182.83 350.27 185.45 329.18 173.54 336.06 102.36 294.97 114.28 288.09 77.76 289.61 75.14 310.69 87.05 303.81 158.22 344.9 146.31 351.78"/><polygon class="cls-8" points="146.31 351.5 182.83 349.98 185.45 328.9 173.54 335.78 102.36 294.69 114.28 287.81 77.76 289.32 75.14 310.4 87.05 303.53 158.22 344.62 146.31 351.5"/><polygon class="cls-8" points="146.31 351.21 182.83 349.7 185.45 328.62 173.54 335.49 102.36 294.4 114.28 287.53 77.76 289.04 75.14 310.12 87.05 303.24 158.22 344.33 146.31 351.21"/><polygon class="cls-8" points="146.31 350.93 182.83 349.42 185.45 328.33 173.54 335.21 102.36 294.12 114.28 287.24 77.76 288.76 75.14 309.84 87.05 302.96 158.22 344.05 146.31 350.93"/><polygon class="cls-1" points="146.31 350.93 182.83 349.42 185.45 328.33 173.54 335.21 102.36 294.12 114.28 287.24 77.76 288.76 75.14 309.84 87.05 302.96 158.22 344.05 146.31 350.93"/><polygon class="cls-13" points="435.43 420.42 285.86 506.77 285.86 479.53 435.43 393.18 435.43 420.42"/><polygon class="cls-14" points="285.86 506.77 136.29 420.42 136.29 393.18 285.86 479.53 285.86 506.77"/><polygon class="cls-15" points="285.86 307.17 136.29 393.52 285.86 479.53 435.43 393.18 285.86 307.17"/><text class="cls-16" transform="matrix(0.75, 0.43, 0, 1, 188.72, 447.65)">VM</text><polygon class="cls-1" points="248.55 408.86 179.19 368.82 179.19 276.33 248.55 316.38 248.55 408.86"/><text class="cls-17" transform="matrix(0.75, 0.43, 0, 1, 182.46, 327.09)">BloSS</text><polygon class="cls-4" points="317.91 368.82 248.55 408.86 248.55 316.38 317.91 276.33 317.91 368.82"/><polygon class="cls-5" points="248.55 316.38 179.19 276.33 248.55 236.29 317.91 276.33 248.55 316.38"/><polygon class="cls-10" points="219.23 392.01 179.19 368.89 179.19 345.05 219.23 368.17 219.23 392.01"/><text class="cls-18" transform="matrix(0.75, 0.43, 0, 1, 185.32, 366.95)">RES<tspan class="cls-19" x="27.89" y="0">T</tspan></text><polygon class="cls-1" points="321.47 451.62 251.55 411.25 251.55 318.01 321.47 358.39 321.47 451.62"/><text class="cls-20" transform="matrix(0.75, 0.43, 0, 1, 257.56, 368.07)"><tspan class="cls-21">P</tspan><tspan x="17.19" y="0">ollen</tspan></text><polygon class="cls-4" points="391.4 411.25 321.47 451.62 321.47 358.39 391.4 318.01 391.4 411.25"/><polygon class="cls-5" points="321.47 358.39 251.55 318.01 321.47 277.64 391.4 318.01 321.47 358.39"/><polygon class="cls-6" points="313.59 427.45 257.55 395.1 257.55 371.07 313.59 403.42 313.59 427.45"/><text class="cls-22" transform="matrix(0.75, 0.43, 0, 1, 259.78, 389.05)">bloc<tspan class="cls-23" x="27.18" y="0">k</tspan><tspan x="34.28" y="0">chain</tspan></text><polygon class="cls-8" points="421.69 496.72 458.2 495.21 460.83 474.13 448.92 481 377.74 439.91 389.65 433.04 353.14 434.55 350.52 455.63 362.43 448.75 433.6 489.85 421.69 496.72"/><polygon class="cls-8" points="421.69 496.44 458.2 494.93 460.83 473.84 448.92 480.72 377.74 439.63 389.65 432.75 353.14 434.27 350.52 455.35 362.43 448.47 433.6 489.56 421.69 496.44"/><polygon class="cls-8" points="421.69 496.16 458.2 494.64 460.83 473.56 448.92 480.44 377.74 439.35 389.65 432.47 353.14 433.98 350.52 455.06 362.43 448.19 433.6 489.28 421.69 496.16"/><polygon class="cls-8" points="421.69 495.87 458.2 494.36 460.83 473.28 448.92 480.15 377.74 439.06 389.65 432.19 353.14 433.7 350.52 454.78 362.43 447.9 433.6 489 421.69 495.87"/><polygon class="cls-8" points="421.69 495.59 458.2 494.07 460.83 472.99 448.92 479.87 377.74 438.78 389.65 431.9 353.14 433.42 350.52 454.5 362.43 447.62 433.6 488.71 421.69 495.59"/><polygon class="cls-8" points="421.69 495.31 458.2 493.79 460.83 472.71 448.92 479.59 377.74 438.5 389.65 431.62 353.14 433.13 350.52 454.21 362.43 447.34 433.6 488.43 421.69 495.31"/><polygon class="cls-8" points="421.69 495.02 458.2 493.51 460.83 472.43 448.92 479.3 377.74 438.21 389.65 431.34 353.14 432.85 350.52 453.93 362.43 447.05 433.6 488.14 421.69 495.02"/><polygon class="cls-8" points="421.69 494.74 458.2 493.23 460.83 472.14 448.92 479.02 377.74 437.93 389.65 431.05 353.14 432.57 350.52 453.65 362.43 446.77 433.6 487.86 421.69 494.74"/><polygon class="cls-8" points="421.69 494.45 458.2 492.94 460.83 471.86 448.92 478.74 377.74 437.65 389.65 430.77 353.14 432.28 350.52 453.36 362.43 446.49 433.6 487.58 421.69 494.45"/><polygon class="cls-8" points="421.69 494.17 458.2 492.66 460.83 471.58 448.92 478.45 377.74 437.36 389.65 430.49 353.14 432 350.52 453.08 362.43 446.2 433.6 487.29 421.69 494.17"/><polygon class="cls-8" points="421.69 493.89 458.2 492.38 460.83 471.29 448.92 478.17 377.74 437.08 389.65 430.2 353.14 431.71 350.52 452.8 362.43 445.92 433.6 487.01 421.69 493.89"/><polygon class="cls-8" points="421.69 493.61 458.2 492.09 460.83 471.01 448.92 477.89 377.74 436.8 389.65 429.92 353.14 431.43 350.52 452.51 362.43 445.64 433.6 486.73 421.69 493.61"/><polygon class="cls-8" points="421.69 493.32 458.2 491.81 460.83 470.73 448.92 477.6 377.74 436.51 389.65 429.63 353.14 431.15 350.52 452.23 362.43 445.35 433.6 486.44 421.69 493.32"/><polygon class="cls-8" points="421.69 493.04 458.2 491.52 460.83 470.44 448.92 477.32 377.74 436.23 389.65 429.35 353.14 430.87 350.52 451.95 362.43 445.07 433.6 486.16 421.69 493.04"/><polygon class="cls-8" points="421.69 492.75 458.2 491.24 460.83 470.16 448.92 477.04 377.74 435.94 389.65 429.07 353.14 430.58 350.52 451.66 362.43 444.79 433.6 485.88 421.69 492.75"/><polygon class="cls-8" points="421.69 492.47 458.2 490.96 460.83 469.88 448.92 476.75 377.74 435.66 389.65 428.78 353.14 430.3 350.52 451.38 362.43 444.5 433.6 485.59 421.69 492.47"/><polygon class="cls-8" points="421.69 492.19 458.2 490.67 460.83 469.59 448.92 476.47 377.74 435.38 389.65 428.5 353.14 430.01 350.52 451.1 362.43 444.22 433.6 485.31 421.69 492.19"/><polygon class="cls-8" points="421.69 491.9 458.2 490.39 460.83 469.31 448.92 476.19 377.74 435.1 389.65 428.22 353.14 429.73 350.52 450.81 362.43 443.94 433.6 485.03 421.69 491.9"/><polygon class="cls-8" points="421.69 491.62 458.2 490.11 460.83 469.02 448.92 475.9 377.74 434.81 389.65 427.93 353.14 429.45 350.52 450.53 362.43 443.65 433.6 484.74 421.69 491.62"/><polygon class="cls-8" points="421.69 491.34 458.2 489.82 460.83 468.74 448.92 475.62 377.74 434.53 389.65 427.65 353.14 429.16 350.52 450.25 362.43 443.37 433.6 484.46 421.69 491.34"/><polygon class="cls-8" points="421.69 491.05 458.2 489.54 460.83 468.46 448.92 475.33 377.74 434.24 389.65 427.37 353.14 428.88 350.52 449.96 362.43 443.08 433.6 484.18 421.69 491.05"/><polygon class="cls-8" points="421.69 490.77 458.2 489.26 460.83 468.17 448.92 475.05 377.74 433.96 389.65 427.08 353.14 428.6 350.52 449.68 362.43 442.8 433.6 483.89 421.69 490.77"/><polygon class="cls-8" points="421.69 490.49 458.2 488.97 460.83 467.89 448.92 474.77 377.74 433.68 389.65 426.8 353.14 428.31 350.52 449.4 362.43 442.52 433.6 483.61 421.69 490.49"/><polygon class="cls-8" points="421.69 490.2 458.2 488.69 460.83 467.61 448.92 474.49 377.74 433.39 389.65 426.52 353.14 428.03 350.52 449.11 362.43 442.24 433.6 483.33 421.69 490.2"/><polygon class="cls-8" points="421.69 489.92 458.2 488.41 460.83 467.32 448.92 474.2 377.74 433.11 389.65 426.23 353.14 427.75 350.52 448.83 362.43 441.95 433.6 483.04 421.69 489.92"/><polygon class="cls-8" points="421.69 489.64 458.2 488.12 460.83 467.04 448.92 473.92 377.74 432.83 389.65 425.95 353.14 427.46 350.52 448.55 362.43 441.67 433.6 482.76 421.69 489.64"/><polygon class="cls-8" points="421.69 489.35 458.2 487.84 460.83 466.76 448.92 473.63 377.74 432.54 389.65 425.67 353.14 427.18 350.52 448.26 362.43 441.38 433.6 482.48 421.69 489.35"/><polygon class="cls-8" points="421.69 489.07 458.2 487.56 460.83 466.47 448.92 473.35 377.74 432.26 389.65 425.38 353.14 426.9 350.52 447.98 362.43 441.1 433.6 482.19 421.69 489.07"/><polygon class="cls-8" points="421.69 488.79 458.2 487.27 460.83 466.19 448.92 473.07 377.74 431.98 389.65 425.1 353.14 426.61 350.52 447.69 362.43 440.82 433.6 481.91 421.69 488.79"/><polygon class="cls-8" points="421.69 488.5 458.2 486.99 460.83 465.91 448.92 472.78 377.74 431.69 389.65 424.82 353.14 426.33 350.52 447.41 362.43 440.53 433.6 481.63 421.69 488.5"/><polygon class="cls-8" points="421.69 488.22 458.2 486.7 460.83 465.62 448.92 472.5 377.74 431.41 389.65 424.53 353.14 426.05 350.52 447.13 362.43 440.25 433.6 481.34 421.69 488.22"/><polygon class="cls-8" points="421.69 487.94 458.2 486.42 460.83 465.34 448.92 472.22 377.74 431.13 389.65 424.25 353.14 425.76 350.52 446.85 362.43 439.97 433.6 481.06 421.69 487.94"/><polygon class="cls-8" points="421.69 487.65 458.2 486.14 460.83 465.06 448.92 471.93 377.74 430.84 389.65 423.96 353.14 425.48 350.52 446.56 362.43 439.68 433.6 480.77 421.69 487.65"/><polygon class="cls-8" points="421.69 487.37 458.2 485.86 460.83 464.77 448.92 471.65 377.74 430.56 389.65 423.68 353.14 425.2 350.52 446.28 362.43 439.4 433.6 480.49 421.69 487.37"/><polygon class="cls-8" points="421.69 487.08 458.2 485.57 460.83 464.49 448.92 471.37 377.74 430.28 389.65 423.4 353.14 424.91 350.52 445.99 362.43 439.12 433.6 480.21 421.69 487.08"/><polygon class="cls-8" points="421.69 486.8 458.2 485.29 460.83 464.21 448.92 471.08 377.74 429.99 389.65 423.12 353.14 424.63 350.52 445.71 362.43 438.83 433.6 479.92 421.69 486.8"/><polygon class="cls-8" points="421.69 486.52 458.2 485 460.83 463.92 448.92 470.8 377.74 429.71 389.65 422.83 353.14 424.35 350.52 445.43 362.43 438.55 433.6 479.64 421.69 486.52"/><polygon class="cls-8" points="421.69 486.24 458.2 484.72 460.83 463.64 448.92 470.52 377.74 429.43 389.65 422.55 353.14 424.06 350.52 445.14 362.43 438.27 433.6 479.36 421.69 486.24"/><polygon class="cls-8" points="421.69 485.95 458.2 484.44 460.83 463.36 448.92 470.23 377.74 429.14 389.65 422.26 353.14 423.78 350.52 444.86 362.43 437.98 433.6 479.07 421.69 485.95"/><polygon class="cls-8" points="421.69 485.67 458.2 484.15 460.83 463.07 448.92 469.95 377.74 428.86 389.65 421.98 353.14 423.5 350.52 444.58 362.43 437.7 433.6 478.79 421.69 485.67"/><polygon class="cls-8" points="421.69 485.38 458.2 483.87 460.83 462.79 448.92 469.67 377.74 428.57 389.65 421.7 353.14 423.21 350.52 444.29 362.43 437.42 433.6 478.51 421.69 485.38"/><polygon class="cls-8" points="421.69 485.1 458.2 483.59 460.83 462.5 448.92 469.38 377.74 428.29 389.65 421.41 353.14 422.93 350.52 444.01 362.43 437.13 433.6 478.22 421.69 485.1"/><polygon class="cls-8" points="421.69 484.82 458.2 483.3 460.83 462.22 448.92 469.1 377.74 428.01 389.65 421.13 353.14 422.64 350.52 443.73 362.43 436.85 433.6 477.94 421.69 484.82"/><polygon class="cls-8" points="421.69 484.53 458.2 483.02 460.83 461.94 448.92 468.82 377.74 427.73 389.65 420.85 353.14 422.36 350.52 443.44 362.43 436.57 433.6 477.66 421.69 484.53"/><polygon class="cls-8" points="421.69 484.25 458.2 482.74 460.83 461.65 448.92 468.53 377.74 427.44 389.65 420.56 353.14 422.08 350.52 443.16 362.43 436.28 433.6 477.37 421.69 484.25"/><polygon class="cls-8" points="421.69 483.97 458.2 482.45 460.83 461.37 448.92 468.25 377.74 427.16 389.65 420.28 353.14 421.79 350.52 442.88 362.43 436 433.6 477.09 421.69 483.97"/><polygon class="cls-8" points="421.69 483.68 458.2 482.17 460.83 461.09 448.92 467.96 377.74 426.87 389.65 420 353.14 421.51 350.52 442.59 362.43 435.71 433.6 476.81 421.69 483.68"/><polygon class="cls-8" points="421.69 483.4 458.2 481.89 460.83 460.8 448.92 467.68 377.74 426.59 389.65 419.71 353.14 421.23 350.52 442.31 362.43 435.43 433.6 476.52 421.69 483.4"/><polygon class="cls-8" points="421.69 483.12 458.2 481.6 460.83 460.52 448.92 467.4 377.74 426.31 389.65 419.43 353.14 420.94 350.52 442.03 362.43 435.15 433.6 476.24 421.69 483.12"/><polygon class="cls-8" points="421.69 482.83 458.2 481.32 460.83 460.24 448.92 467.12 377.74 426.02 389.65 419.15 353.14 420.66 350.52 441.74 362.43 434.87 433.6 475.96 421.69 482.83"/><polygon class="cls-8" points="421.69 482.55 458.2 481.04 460.83 459.95 448.92 466.83 377.74 425.74 389.65 418.86 353.14 420.38 350.52 441.46 362.43 434.58 433.6 475.67 421.69 482.55"/><polygon class="cls-1" points="421.69 482.55 458.2 481.04 460.83 459.95 448.92 466.83 377.74 425.74 389.65 418.86 353.14 420.38 350.52 441.46 362.43 434.58 433.6 475.67 421.69 482.55"/><path class="cls-24" d="M492.39,530.18l-45.8-26.78,45.8-19.58,45.8,19.58ZM454.57,503.9,492.39,526l37.82-22.11-37.82-16.17Z" transform="translate(-9.08 -5.25)"/><path class="cls-25" d="M491.78,537.63l-44.3-24,44.3,66.56,44.3-66.56ZM487,564.34,462.16,527,487,540.49Zm9.59-23.85L521.4,527l-24.82,37.3Z" transform="translate(-9.08 -5.25)"/><path class="cls-25" d="M492.39,415,445,503.38l47.41,27.72,47.41-27.72Zm-4.8,107.69-36.21-21.17,36.21-67.45Zm9.59-88.62,36.21,67.45-36.21,21.17Z" transform="translate(-9.08 -5.25)"/></svg>